<svg xmlns="http://www.w3.org/2000/svg" viewBox="0 0 32 32" fill="none">
  <rect width="32" height="32" rx="6" fill="#EA580C"/>
  <ellipse cx="16" cy="16" rx="8" ry="6.5" fill="#fff" opacity="0.9"/>
  <circle cx="12.5" cy="13" r="1.8" fill="#EA580C"/>
  <circle cx="19.5" cy="13" r="1.8" fill="#EA580C"/>
  <circle cx="13" cy="13" r="0.7" fill="#1a1a1a"/>
  <circle cx="20" cy="13" r="0.7" fill="#1a1a1a"/>
  <path d="M8 12 Q5 9 4.5 11 Q4 13 6 13.5 Q7 14 8 13.5" fill="#EA580C"/>
  <path d="M24 12 Q27 9 27.5 11 Q28 13 26 13.5 Q25 14 24 13.5" fill="#EA580C"/>
  <path d="M11 19 L9 22" stroke="#EA580C" stroke-width="1.5" stroke-linecap="round"/>
  <path d="M13 20 L12 23" stroke="#EA580C" stroke-width="1.5" stroke-linecap="round"/>
  <path d="M21 19 L23 22" stroke="#EA580C" stroke-width="1.5" stroke-linecap="round"/>
  <path d="M19 20 L20 23" stroke="#EA580C" stroke-width="1.5" stroke-linecap="round"/>
</svg>
